# xmcd
#
# Track frame offsets:
#	150
#	15813
#	32310
#	50158
#	65200
#	83535
#	98350
#	111965
#	128903
#	144290
#
# Disc length: 2137 seconds
#
# Revision: 2
# Processed by: cddbd v1.5.2PL0 Copyright (c) Steve Scherf et al.
# Submitted via: EZCDAudioConverter 6.0.2.1
#
DISCID=7308570a
DTITLE=Linda Davis - Some Things Are Meant To Be
DYEAR=1996
DGENRE=Country
TTITLE0=Some Things Are Meant To Be
TTITLE1=Love Story In The Making
TTITLE2=Walk Away
TTITLE3=Always Will
TTITLE4=Neither Of Us
TTITLE5=She Doesn't Ask
TTITLE6=Cast Iron Heart
TTITLE7=There Isn't One
TTITLE8=What Do I Know
TTITLE9=If I Could Live Your Life
EXTD=
EXTT0=
EXTT1=
EXTT2=
EXTT3=
EXTT4=
EXTT5=
EXTT6=
EXTT7=
EXTT8=
EXTT9=
PLAYORDER=
